# xmcd
#
# Track frame offsets:
#	150
#	13635
#	20762
#	37195
#	54585
#	68712
#	82227
#	95752
#	123485
#	131225
#	158272
#	177810
#	197802
#	223410
#
# Disc length: 3181 seconds
#
# Revision: 9
# Processed by: cddbd v1.5.1PL2 Copyright (c) Steve Scherf et al.
# Submitted via: audiograbber 1.83.01
#
DISCID=cf0c6b0e
DTITLE=Various Artist - Moods Of La Habana - CD 1
DYEAR=1999
DGENRE=Latin
TTITLE0=Frank Emilio Flynn - Midnight Theme
TTITLE1=Habana Vieja - From Far Away: Chan Chan
TTITLE2=Cuarteto Tradición Cubana - Siboney
TTITLE3=Cuarteto Tradición Cubana - El Bodeguero
TTITLE4=Cuarteto Tradición Cubana - Nosotros
TTITLE5=Cuarteto Tradición Cubana - Baile Del Suavito
TTITLE6=Cuarteto Tradición Cubana - Dos Gardenias
TTITLE7=Cuarteto Tradición Cubana - La Bella Cubana
TTITLE8=Olga González Cordo - From Far Away: Te Quiero
TTITLE9=Dúo Cachibache - Chachacha Cachibache
TTITLE10=Dúo Cachibache - Son De La Loma
TTITLE11=Dúo Cachibache - De Reojo
TTITLE12=Dúo Cachibache - Una Flor Años Después
TTITLE13=Mechanical Piano - Aquella Boca...!
EXTD=YEAR: 1999
EXTT0=Frank Emilio Flynn
EXTT1=Habana Vieja
EXTT2=Cuarteto Tradición Cubana
EXTT3=Cuarteto Tradición Cubana
EXTT4=Cuarteto Tradición Cubana
EXTT5=Cuarteto Tradición Cubana
EXTT6=Cuarteto Tradición Cubana
EXTT7=Cuarteto Tradición Cubana
EXTT8=Olga González Cordo
EXTT9=Dúo Cachibache
EXTT10=Dúo Cachibache
EXTT11=Dúo Cachibache
EXTT12=Dúo Cachibache
EXTT13=Mechanical Piano
PLAYORDER=
